<svg width="20" height="20" viewBox="0 0 20 20" fill="none" xmlns="http://www.w3.org/2000/svg">
<path d="M20 10C20 15.5228 15.5228 20 10 20C4.47715 20 0 15.5228 0 10C0 4.47715 4.47715 0 10 0C15.5228 0 20 4.47715 20 10Z" fill="#00B4B7"/>
<path d="M16.3085 11.6682C16.3085 15.1147 13.4903 16.2 10.0138 16.2C6.53738 16.2 3.71915 15.1147 3.71915 11.6682C3.71915 8.22163 6.53738 5.42765 10.0138 5.42765C13.4903 5.42765 16.3085 8.22163 16.3085 11.6682Z" fill="white"/>
<path d="M12.9341 13.2149C12.9341 14.3361 11.6557 14.6891 10.0787 14.6891C8.50178 14.6891 7.22341 14.3361 7.22341 13.2149C7.22341 12.0937 8.50178 11.6575 10.0787 11.6575C11.6557 11.6575 12.9341 12.0937 12.9341 13.2149Z" fill="#00B4B7"/>
<path d="M4.60989 5.85172C4.54792 5.51122 4.88821 5.24048 5.176 5.40131L6.68629 6.24532C6.93613 6.38495 6.95942 6.75595 6.72981 6.93864L5.54469 7.88153C5.31507 8.06421 4.98885 7.93423 4.93506 7.63863L4.60989 5.85172Z" fill="white"/>
<path d="M15.288 5.85172C15.35 5.51122 15.0097 5.24048 14.7219 5.40131L13.2116 6.24532C12.9618 6.38495 12.9385 6.75595 13.1681 6.93864L14.3532 7.88153C14.5828 8.06421 14.909 7.93423 14.9628 7.63863L15.288 5.85172Z" fill="white"/>
<path d="M8.64563 12.5333L8.73178 11.3479L7.74493 11.6752L8.64563 12.5333Z" fill="white"/>
<path d="M11.2974 12.5597L11.2113 11.3744L12.1981 11.7017L11.2974 12.5597Z" fill="white"/>
<path d="M8.00213 10.4894C8.00213 10.8478 7.71159 11.1383 7.3532 11.1383C6.9948 11.1383 6.70426 10.8478 6.70426 10.4894C6.70426 10.131 6.9948 9.84043 7.3532 9.84043C7.71159 9.84043 8.00213 10.131 8.00213 10.4894Z" fill="#00B4B7"/>
<path d="M13.4532 10.4894C13.4532 10.8478 13.1627 11.1383 12.8043 11.1383C12.4459 11.1383 12.1553 10.8478 12.1553 10.4894C12.1553 10.131 12.4459 9.84043 12.8043 9.84043C13.1627 9.84043 13.4532 10.131 13.4532 10.4894Z" fill="#00B4B7"/>
</svg>
